<?xml version="1.0" encoding="utf-8"?>
<!-- Generator: Adobe Illustrator 19.2.1, SVG Export Plug-In . SVG Version: 6.00 Build 0)  -->
<svg version="1.1" id="Layer_1" xmlns="http://www.w3.org/2000/svg" xmlns:xlink="http://www.w3.org/1999/xlink" x="0px" y="0px"
	 viewBox="0 0 52 38" style="enable-background:new 0 0 52 38;" xml:space="preserve">
<style type="text/css">
	.st0{fill-rule:evenodd;clip-rule:evenodd;fill:#58595B;}
</style>
<g>
	<path class="st0" d="M30.9,34.6"/>
	<path class="st0" d="M8.7,20.5c-1.3,2-1.7,3.2-2,4.4c-0.3,1.2,0.2,2,2,2.5c1.7,0.6,1.9,0.2,2.6-0.6c0.7-0.9,1.3-5.1,1.3-5.1
		s0-1.7-1.3-1.9C10.1,19.6,8.7,20.5,8.7,20.5z M14.6,25c-0.1,0.4-0.2,4.6,5.9,6.3c5.3,1.5,15.8,1.1,18.2-2.5
		c1.5-2.2,0.7-4.9-1.3-5.1c-1.2-0.1-1.4-1.1-1.3,0c0.1,1.1-1.5,4.2-5.4,4.5c-3.8,0.4-8.8-0.4-10.3-2c-1.4-1.5-0.9-3.3-2.6-3.8
		C14.6,21.5,14.6,24.6,14.6,25z M25,21.3c0,0,0.4,1.5,0.1,3.2c-0.3,1.7,1.7,1.9,3.9,1.7c2.1-0.3,2-2.4,1.7-3
		C30.4,22.5,28.3,19,25,21.3z M40.5,19.1c-0.2,4.7,2,5.7,2,5.7c3.2,1.3,2.7-0.1,2.7-0.1s1.1-1.4-0.4-4
		C43.3,18.1,40.5,19.1,40.5,19.1z M1.4,21.9c-0.6,3-0.9,5.2,1,8.5c1.9,3.1,7.8,4.5,13.3,5.7c5.5,1.2,14.5,0.9,18.2,0.4
		c3.7-0.5,15.8-4.4,16.7-9.7c0.9-5.3-0.6-9.3-3-11.5c-2.4-2.3-13-2.8-16.1-3.1c-3.1-0.3-18.1,1.6-20.9,1.9
		C5.9,14.7,2.7,15.6,1.4,21.9z M5,19.6c0,0,0.8-2.2,3.9-2.5c4.3-0.4,13.6-1.5,19.4-1.6c5.8-0.1,15.3,0.1,17.3,2.5
		c2,2.4,2.2,5.4,1.8,8.6c-0.4,3.2-9,6.8-16.1,7.3c-7.1,0.6-18-0.9-23.4-3.3c-3.2-1.4-3.8-3.9-3.8-6.4C4.2,22.4,5,19.6,5,19.6z
		 M6.1,12.3c0,0,20.2-3.2,37.7-1.3l1.3-1.3c0,0-8.9-2.2-16.9-3.2c-0.5-0.1,4.6-4,3.3-5.1c-1.3-1.1-11.1,0-11.1,0s4.2,4.1,3.3,4.4
		c-1,0.3-11.6,2.1-18.2,4.4C-1.2,12.7,6.1,12.3,6.1,12.3z"/>
</g>
</svg>
