<?xml version="1.0" encoding="utf-8"?>
<!-- Generator: Adobe Illustrator 19.2.1, SVG Export Plug-In . SVG Version: 6.00 Build 0)  -->
<svg version="1.1" id="Layer_1" xmlns="http://www.w3.org/2000/svg" xmlns:xlink="http://www.w3.org/1999/xlink" x="0px" y="0px"
	 viewBox="0 0 78 26" style="enable-background:new 0 0 78 26;" xml:space="preserve">
<style type="text/css">
	.st0{fill-rule:evenodd;clip-rule:evenodd;fill:#FFFFFF;}
</style>
<g>
	<path class="st0" d="M11.4,9.3c0,0,0.6,1.1,0.8,1.9c0.3,0.8,1.8,0.1,1.8,0.1s0.7-0.8,0-1.4C13.4,9.2,11.4,9.3,11.4,9.3z M24,6.8
		C24,6.8,24,6.8,24,6.8C24,6.9,24,6.9,24,6.8z M23.9,11.5c0,0-0.1-4.1,0.1-4.7c-0.5,0.1-4.9-0.2-4.9-0.2l-0.4-0.5
		c0,0,1.7-1.4,1.9-1.8c0.2-0.5-0.4-1.4-0.4-1.4L21.9,3c-0.1-0.8-0.9-1.8-1.7-1.9C19.3,1,18.4,1,18.4,1C16.8,1.9,1.7,2.8,1.7,2.8
		S1.3,3.3,2.6,4.3c1.3,1,1.3,0,1.3,0l1.3,0c0,0-0.2,0.8,0.4,1c0.6,0.2,0.9,0,0.9,0L6.5,7.2C4.9,7.4,1.6,7.1,1.6,7.1L1.5,9.4
		C1.4,11.3,1,11.3,1,11.3c0.3,1,2.3,1.3,2.7,0.6c0.4-0.7,0.1-3.3,0.1-3.3c0.6-0.3,4,0.1,4,0.1c-0.4,2,0.3,5.7,0.3,5.7l0.9,0
		c0,1.3-1,1.9-1,1.9c-2.9,2.2-6.4,3.6-6.4,3.6c0.1,1.3,2.2,1.5,2.2,1.5c3.9-1.4,5.1-4.1,5.1-4.1l2.6,3.4c-3.7,3.3-9.4,1.9-9.9,2
		C1,22.7,3.7,25,3.7,25c4.7-0.5,10-3.4,10-3.4c4.5,2.4,9.3,3.1,9.3,3.1c0.5-0.6,1-2.8,1-2.8c-7.4,0-8.5-1.2-8.5-1.2S15,20.9,16,19.8
		c1-1.1,3.2-2.7,3.2-2.7s-0.4-0.6-1.3-1c-0.9-0.3-6.4,0-6.7-0.2c-0.3-0.2,0-1.4,0-1.4c0.5,0.1,4.3,0.1,5.4-0.3
		c1.1-0.4,0.8-0.4,0.9-1.4c0.2-1-1.3-1.5-1.3-1.5s-0.2,1-0.9,1.4C14.6,13,10.4,13,10.4,13S10,12.9,10,11.6c0-1.3-0.8-2.8-0.8-2.8
		s11.3,0,12.1-0.1c0.8-0.1,0.4,2.4,0.4,2.4l-0.4,0c0,0-1.2-1.4-2.2-1.5c-1-0.1-1.4,0.9-1.4,0.9c1.3,0.6,3,2.9,3,2.9l1.4-1.4
		l-0.4-0.5L23.9,11.5z M8,4l2.7,0.1c0,0,1.5,2.8,2.2,2.9L9.2,7.3l-0.4,0C7.5,7.2,8,4,8,4z M12.9,3.7l4.5,0.1c0,0-0.1,1.7-1,2.8
		l-2.2-0.1C14.2,6.5,12.8,5.8,12.9,3.7z M12.5,17.3c0.5,0.1,1.6,0.1,2.7,0.1c1.1,0,0,2-1.4,1.8c-1.4-0.1-1.4,0.4-1.8-1.5
		C12,17.7,12,17.2,12.5,17.3z M6,10l-0.5,0c0,0.7-1.4,3.2-1.4,3.2c0.3,0.4,1.2,0.6,1.8,0.5c0.6-0.1,0.9-0.9,0.9-0.9
		C7.4,10.6,6,10,6,10z M28.1,5.1c1,0.9,2.1,3.3,2.1,3.4c0.1,0.1,1.4-1.4,1.4-1.4c-0.3-0.8-2.1-3.4-2.1-3.4
		C28.9,4.1,28.1,5.1,28.1,5.1z M35.7,7.2L37,7.7c0.4-0.4,1.9-2.3,1.9-2.3C38.3,4.1,36.7,4,36.7,4C36.3,4.8,35.7,7.2,35.7,7.2z
		 M32.7,1.9c0.1,0,0.4,7.5,0.2,7.5l-4.5-0.1c0,0-0.2,2.5-0.1,2.3c0.1-0.2,2-0.8,4-0.3c0,0-1.4,4.5-3.3,6.5c0,0-0.7,0-1.3,0l-0.1,1.9
		c0,0,0.4,0.7,1.3,1c0,0,2.7-3,3.7-4.6c0,0,0.5,1.2,0.3,3.3c-0.1,2.1-0.6,3.7-0.6,3.7s0,1,1.3,1c1.3,0,1.4-0.4,1.4-0.4
		s-0.4-2.2-0.3-3.8l0.1-4.7l2.2,2.4c0,0,0.8-0.2,0.9-0.4c0,0,0.3,1,0.9,1.4c0,0,5-2.2,6.8-2.6c0,0-0.2,5.6-0.7,8
		c0,0,0.4,0.6,1.3,0.5c0.9-0.1,1.3,0,1.3,0l0.1-2.4c0,0-0.4,0.2-0.3-3.8l0.1-2.8c0,0,1.3-0.7,2.7-0.9l0.1-1.9c0,0-1.7,0.1-2.7,0.9
		c0,0-0.3-5.3-0.1-9.9c0,0,0.3-1.7,0.5-1.9c0,0-0.7-0.6-1.8-0.5c-1.1,0-1.4,0.4-1.4,0.4s0.7,1.8,0.7,6.6c0,4.9,0.3,5.7,0.3,5.7
		s-6.1,2.2-7.2,2.1l0-0.5c0,0-1.9-1.3-3.9-3l0-1.4L36,11l0-0.5l0.4,0.5c0,0,1.8,0.1,2.2,0.1c0,0,0,0.5,0.4,0.5c0.4,0,0.8-0.6,1.3,0
		c0.5,0.7,0.9,1,0.9,1s1-0.3,1.4-0.9c0,0,0-0.4,0-0.5c0-0.1-0.8-0.6-1.3-1c-0.5-0.3-0.9-0.5-0.9-0.5l-1.8,0.9l0-0.9c0,0-3-0.2-4-0.1
		c0,0,0.2-6.8,0.7-7.5l-0.9-0.5C34.5,1.5,32.6,2,32.7,1.9z M39.8,5.9c0,0,2.3,1.3,3.1,2c0,0,0.6-0.7,1-1.9c0,0-0.8-0.4-2.2-1.5
		C41.6,4.6,41,4.5,39.8,5.9z M53.8,3.1C53.4,3,53.7,5,53.7,5l0.9,0.5c0,0,0.7-0.4,0.9-0.4c0.1,0,0.7,0,1.5,0
		c0.2,1.3,0.1,4.7,0.1,4.7c-2.4,0-3.6,0.4-3.6,0.4c-0.2,2.5,1.3,2.4,1.3,2.4c1.4-0.2,2.3-0.9,2.3-0.9l-0.2,6.6
		c-2,0.6-3.2,0.4-3.2,0.4s-0.5,0-0.5,1.4c0,1.4,0.8,1.4,0.8,1.4c2.3-0.9,6.9-2.2,7.2-2.1c0.3,0.1,0.5-0.5,0.5-0.5
		c-0.1-1.2-0.4-1.4-0.4-1.4c-1.4,0.6-2.7,0.4-2.7,0.4s0.3-5.1,0.2-6.1c-0.1-1,2,0.6,2.2,0.1c0.2-0.5,0.1-1.8,0.1-1.9
		c0-0.1-2.2-0.1-2.2-0.1C59,7,59.3,5.7,59.6,5.2l2.2,0.1l0.1-2.3C59.8,3.2,54.2,3.1,53.8,3.1z M62.7,2.9c-0.3-0.1-0.1,4.7-0.1,4.7
		s1.1,0.6,0.9,1c-0.2,0.4-0.9,0.9-0.9,0.9c-0.1,0.9-0.1,3.8-0.1,3.8l2.2,0.1c1.4,0,2.5-0.1,3.2-0.2c0,1.2-0.2,3.6-0.2,3.6
		s-4-0.8-5.4-0.6l-0.5,0.5l0.8,2.4l0.9-0.9l3.1,0.1l0.9,0.5l-0.1,2.4c0,0-3,0.5-8.1,0.2l0.8,2.8c0,0,1.5-0.5,4.5-0.8
		c3-0.3,10.3,0.3,10.3,0.3l1.8,0.1l0.1-3.3c0,0-2.4,0.7-4.5,0.8c-2.2,0-3.1-0.1-3.1-0.1l0.1-2.8c0,0,5.1,0.2,5.8,0.2l0.1-3.3
		c0,0-1.7,0.8-4.5,1.3l-1.3,0l0.1-3.2l5.8,0.6l-0.9-1l-0.1-9.9C68.3,2.4,63,3,62.7,2.9z M64.4,5.8c0.1-0.2-0.1-0.6,0.5-0.9
		c0.6-0.3,2.3-0.4,2.3-0.4L67.6,5c0,0,0,2.4-0.1,2.4c-0.1,0-1.6,0.5-2.3,0.4c-0.7-0.1-0.9-0.4-0.9-0.5C64.4,7.1,64.4,6,64.4,5.8z
		 M69.9,5c0-0.1,1.3-0.7,2.3-0.4c0,0,0.9,0.1,0.9,1.4l0,1.4l-1.4,0.4l-2.2-0.5L69.4,5C69.4,5,69.8,5.1,69.9,5z M64.8,9.6
		c0,0,0.3-0.4,1.8-0.4c1.5,0,1.3,0.5,1.3,0.5s0.1,1.9-0.1,1.9c-0.1-0.1-1.6,0.3-2.7,0.4C64.1,12,64.8,9.6,64.8,9.6z M69.3,9.2
		c0,0,0.6-0.1,1.3,0c0.8,0.1,1.8-0.4,1.8-0.4c0.7,0.3-0.1,2.8-0.1,2.8c-0.5,0.1-2.7-0.1-2.7-0.1L69.3,9.2z"/>
</g>
</svg>
