<?xml version="1.0" encoding="utf-8"?>
<!-- Generator: Adobe Illustrator 19.2.1, SVG Export Plug-In . SVG Version: 6.00 Build 0)  -->
<svg version="1.1" id="Layer_1" xmlns="http://www.w3.org/2000/svg" xmlns:xlink="http://www.w3.org/1999/xlink" x="0px" y="0px"
	 viewBox="218.6 -55.1 37 40" enable-background="new 218.6 -55.1 37 40" xml:space="preserve">
<path d="M237.1-55.1l-18.2,9.9v20.1l18.2,9.9l18.2-9.9v-20.1L237.1-55.1z M226.8-29.3L220-44.5l16.3-2.3L226.8-29.3z M237.1-46.4
	l9.7,17.7h-19.3L237.1-46.4z M246.6-27.9l-9.5,11.5l-9.4-11.5H246.6z M238-46.8l16.3,2.3l-6.8,15.2L238-46.8z M237.6-47.8v-6.1
	l15,8.2L237.6-47.8z M236.7-47.8l-15,2.1l15-8.2V-47.8z M226.2-28.6l-6.4,2.6v-16.8L226.2-28.6z M226.7-27.8l8.7,10.7l-15-8.2
	L226.7-27.8z M247.7-27.8l6.2,2.5l-15,8.2L247.7-27.8z M248.2-28.6l6.3-14.2V-26L248.2-28.6z"/>
</svg>
