<?xml version="1.0" encoding="utf-8"?>
<!-- Generator: Adobe Illustrator 19.2.1, SVG Export Plug-In . SVG Version: 6.00 Build 0)  -->
<svg version="1.1" id="Layer_1" xmlns="http://www.w3.org/2000/svg" xmlns:xlink="http://www.w3.org/1999/xlink" x="0px" y="0px"
	 viewBox="0 0 262 196" style="enable-background:new 0 0 262 196;" xml:space="preserve">
<style type="text/css">
	.st0{fill-rule:evenodd;clip-rule:evenodd;fill:#FFFFFF;}
</style>
<path class="st0" d="M130.6,195c-15,0-36.4-0.8-52.9-4.6c-27.8-6.5-59.4-13.9-69.1-30.5c-9.8-16.8-8.5-28.2-5.4-44.9
	C9.8,80.8,27.2,76.5,51,74.1c3.2-0.3,9.4-1.1,17.2-2l0.3,0c26.2-3.1,70.1-8.3,87.5-8.3c1.7,0,3.2,0.1,4.3,0.2c2.2,0.2,5,0.4,8.4,0.7
	c21.1,1.7,64.9,5.2,75.6,15.5c13.9,13.6,19.6,35.9,15.4,61.2c-2.5,15.2-22,27.5-37.9,35.2c-17.9,8.6-38.6,14.8-49,16.2
	C164.6,193.8,149.2,195,130.6,195L130.6,195z M157.6,79.3c-4.7,0-9.6,0.1-14.4,0.2C120.8,80,87.9,83.4,64,85.9l-0.5,0.1
	c-8.7,0.9-16.2,1.7-21.9,2.2c-16.2,1.4-21,13.8-21,13.9c-0.1,0.2-4.6,15.3-4.7,25.4c-0.2,12.2,1.9,27.2,20.2,35.3
	c23.9,10.6,68.2,18.3,105.4,18.3c6.3,0,12.2-0.2,17.6-0.7c36.3-3.1,82.7-22.2,85.2-40.2c2.8-20.6-0.2-35.5-9.6-46.9
	C225.2,81.7,187.6,79.3,157.6,79.3z M138.1,168.8c-13.4,0-26.5-1.6-36.1-4.5c-32.5-9.6-30.1-32.9-30.1-33.1c0-0.2,0.1-0.5,0.1-1
	c0.3-3.2,1.4-13,10.4-13c1.6,0,3.5,0.3,5.5,0.9c4.8,1.5,5.9,4.9,7.4,9.3c1.2,3.4,2.5,7.3,5.8,10.9c6.7,7.5,27.4,11.4,44.4,11.4
	c3.5,0,6.9-0.2,10-0.5c19.9-2,29.2-18.5,28.8-25.2c0-0.7-0.1-1.1-0.1-1.5c0,0,0,0,0,0c1.1,0.8,3,2.1,5.9,2.3
	c3.8,0.3,6.8,2.5,8.6,6.1c2.8,5.7,1.8,13.5-2.4,19.9C187.8,164.2,160.6,168.8,138.1,168.8z M47.2,145.4c-1.5,0-3.5-0.5-6.5-1.5
	c-8.5-3-11.2-6.4-9.7-12.7c1.7-7.2,3.4-13.1,10.1-23.5c0,0,0.1,0,0.1-0.1c3.7-2.1,7.5-3.3,10.6-3.3c0.7,0,1.5,0.1,2.2,0.2
	c6,1.2,6.1,9.3,6.1,9.4c-0.3,2.3-3.1,22.5-6.6,26.7l-0.7,0.9C50.6,144.2,49.6,145.4,47.2,145.4z M139.5,137.1
	c-5.5,0-9.3-1.1-11.2-3.3c-1.1-1.3-1.5-3.1-1.2-5.2c1.2-7.7-0.2-14.9-0.6-16.9c3.6-2.4,7.1-3.7,10.6-3.7c10.1,0,16.5,10.5,17.6,13.3
	c0.7,1.7,1.5,6.6-0.8,10.5c-1.5,2.6-4.1,4.2-7.6,4.7C143.9,136.9,141.6,137.1,139.5,137.1z M228.2,132.7c-2.3,0-5.8-1-10.4-2.9
	c-0.1,0-10.8-5.5-10.2-29.3c0.9-0.3,3.1-0.8,5.8-0.8c4.6,0,11,1.6,15.3,9.2c7.3,13.2,2.3,20.8,2.2,20.8l-0.2,0.3l0.1,0.4
	c0,0,0.3,0.9-0.2,1.5C230.2,132.4,229.4,132.7,228.2,132.7z M19.4,60.1C9.4,60.1,9,58.6,9,58.6c0-0.1-0.2-2,14.1-7.3
	c25.9-9.5,62.8-17,82.6-21.1c6.9-1.4,11.4-2.3,12.8-2.8c0.7-0.2,1.1-0.7,1.3-1.4c0.9-4-11-16.7-16.8-22.6C108.3,2.9,126.8,1,141,1
	c12.8,0,16.4,1.5,17.5,2.4c0.5,0.5,0.8,1.1,0.8,1.8c0.2,4.6-8,13-13.3,18.5c-4.5,4.6-5.3,5.5-4.9,6.4c0.1,0.4,0.5,0.6,0.9,0.7
	c37,4.5,77.6,14.3,87,16.7l-5.5,5.5c-19.4-2.1-41-3.2-64.1-3.2c-69.6,0-132.7,10-133.3,10.1C25.1,60,22.4,60.1,19.4,60.1z"/>
</svg>
